<mxfile host="app.diagrams.net" agent="Mozilla/5.0 (Windows NT 10.0; Win64; x64) AppleWebKit/537.36 (KHTML, like Gecko) Chrome/127.0.0.0 Safari/537.36" version="24.7.6">
  <diagram name="Page-1" id="Page-1">
    <mxGraphModel dx="2280" dy="1969" grid="1" gridSize="10" guides="1" tooltips="1" connect="1" arrows="1" fold="1" page="1" pageScale="1" pageWidth="850" pageHeight="1100" math="0" shadow="0">
      <root>
        <mxCell id="0" />
        <mxCell id="1" parent="0" />
        <UserObject label="&lt;div style=&quot;font-size: 1px&quot;&gt;&lt;font style=&quot;font-size:17.46px;font-family:Helvetica;color:#000000;direction:ltr;letter-spacing:0px;line-height:120%;opacity:1&quot;&gt;DeIC&lt;/font&gt;&lt;/div&gt;" tags="Background" id="2">
          <mxCell style="verticalAlign=middle;align=center;overflow=width;vsdxID=1;fillColor=#d5e8d4;gradientColor=none;shape=stencil(nZBRDoQgDERP03+WHsHFe5iISyOCQdT19kIaIxq//Jtp3zTpAFaTaUYNUkwx+F6v1EYD+AUpyRkdKCYFqACrzgf9C352LfuxyWRWg1/yhT/nRE5IsZWuZtCSK8CPeI0e/hF+jV7AJM4PO7KWCyr390bSiNtEtQM=);strokeColor=#82b366;spacingTop=-3;spacingBottom=-3;spacingLeft=-3;spacingRight=-3;points=[];labelBackgroundColor=none;rounded=0;html=1;whiteSpace=wrap;" parent="1" vertex="1">
            <mxGeometry x="590" y="170" width="1060" height="360" as="geometry" />
          </mxCell>
        </UserObject>
        <UserObject label="&lt;div style=&quot;font-size: 1px&quot;&gt;&lt;font style=&quot;font-size:11.64px;font-family:Helvetica;color:#000000;direction:ltr;letter-spacing:0px;line-height:120%;opacity:1&quot;&gt;DeIC Sever&lt;/font&gt;&lt;/div&gt;" tags="Background" id="3">
          <mxCell style="verticalAlign=middle;align=center;overflow=width;vsdxID=2;fillColor=#ffffff;gradientColor=none;shape=stencil(nZBRDoQgDERP03+WHsHFe5iISyOCQdT19kIaIxq//Jtp3zTpAFaTaUYNUkwx+F6v1EYD+AUpyRkdKCYFqACrzgf9C352LfuxyWRWg1/yhT/nRE5IsZWuZtCSK8CPeI0e/hF+jV7AJM4PO7KWCyr390bSiNtEtQM=);strokeColor=#000000;spacingTop=-3;spacingBottom=-3;spacingLeft=-3;spacingRight=-3;points=[];labelBackgroundColor=none;rounded=0;html=1;whiteSpace=wrap;" parent="1" vertex="1">
            <mxGeometry x="640" y="215" width="106" height="280" as="geometry" />
          </mxCell>
        </UserObject>
        <UserObject label="&lt;div style=&quot;font-size: 1px&quot;&gt;&lt;font style=&quot;font-size:11.64px;font-family:Helvetica;color:#000000;direction:ltr;letter-spacing:0px;line-height:120%;opacity:1&quot;&gt;Nginx&lt;/font&gt;&lt;/div&gt;" tags="Background" id="4">
          <mxCell style="verticalAlign=middle;align=center;overflow=width;vsdxID=3;fillColor=#ffffff;gradientColor=none;shape=stencil(nZFLDsIwDERP4y1yEzasS7kAJ4iIIRYhqdJQPqcnrUEKiFW98oyfHWkCuh2c6QkUDjnFM93YZgd6C0pxcJQ4lw50B7o9xkSnFK/Biu5NIRXODlnZaSZaoUmHPT/p7eEK15u6BJIrlzhOr9+FRRk9arUT0HOowAYXox/9F16MfoGlmdOR3Nh7Cbee/6ZZLPkJ3b0A);strokeColor=#000000;spacingTop=-3;spacingBottom=-3;spacingLeft=-3;spacingRight=-3;points=[];labelBackgroundColor=none;rounded=1;html=1;whiteSpace=wrap;" parent="1" vertex="1">
            <mxGeometry x="659" y="245" width="67" height="225" as="geometry" />
          </mxCell>
        </UserObject>
        <UserObject label="&lt;div style=&quot;font-size: 1px&quot;&gt;&lt;font style=&quot;font-size:17.46px;font-family:Helvetica;color:#000000;direction:ltr;letter-spacing:0px;line-height:120%;opacity:1&quot;&gt;Specify System&lt;/font&gt;&lt;/div&gt;" tags="Background" id="5">
          <mxCell style="verticalAlign=middle;align=center;overflow=width;vsdxID=4;fillColor=#e1d5e7;gradientColor=none;shape=stencil(nZBRDoQgDERP03+WHsHFe5iISyOCQdT19kIaIxq//Jtp3zTpAFaTaUYNUkwx+F6v1EYD+AUpyRkdKCYFqACrzgf9C352LfuxyWRWg1/yhT/nRE5IsZWuZtCSK8CPeI0e/hF+jV7AJM4PO7KWCyr390bSiNtEtQM=);strokeColor=#9673a6;spacingTop=-3;spacingBottom=-3;spacingLeft=-3;spacingRight=-3;points=[];labelBackgroundColor=none;rounded=0;html=1;whiteSpace=wrap;" parent="1" vertex="1">
            <mxGeometry x="170" y="170" width="370" height="290" as="geometry" />
          </mxCell>
        </UserObject>
        <UserObject label="&lt;div style=&quot;font-size: 1px&quot;&gt;&lt;font style=&quot;font-size:11.64px;font-family:Helvetica;color:#000000;direction:ltr;letter-spacing:0px;line-height:120%;opacity:1&quot;&gt;Digitising Proces&lt;/font&gt;&lt;/div&gt;" tags="Background" id="6">
          <mxCell style="verticalAlign=middle;align=center;overflow=width;vsdxID=5;fillColor=#dae8fc;gradientColor=none;shape=stencil(nZBRDoQgDERP03+WHsHFe5iISyOCQdT19kIaIxq//Jtp3zTpAFaTaUYNUkwx+F6v1EYD+AUpyRkdKCYFqACrzgf9C352LfuxyWRWg1/yhT/nRE5IsZWuZtCSK8CPeI0e/hF+jV7AJM4PO7KWCyr390bSiNtEtQM=);strokeColor=#6c8ebf;spacingTop=-3;spacingBottom=-3;spacingLeft=-3;spacingRight=-3;points=[];labelBackgroundColor=none;rounded=0;html=1;whiteSpace=wrap;" parent="1" vertex="1">
            <mxGeometry x="170" y="490" width="370" height="330" as="geometry" />
          </mxCell>
        </UserObject>
        <UserObject label="&lt;div style=&quot;font-size: 1px&quot;&gt;&lt;font style=&quot;font-size:17.46px;font-family:Helvetica;color:#000000;direction:ltr;letter-spacing:0px;line-height:120%;opacity:1&quot;&gt;&lt;b&gt;ERDA&lt;/b&gt;&lt;/font&gt;&lt;/div&gt;" tags="Background" id="7">
          <mxCell style="verticalAlign=middle;align=center;overflow=width;vsdxID=6;fillColor=#fff2cc;gradientColor=none;shape=stencil(nZBRDoQgDERP03+WHsHFe5iISyOCQdT19kIaIxq//Jtp3zTpAFaTaUYNUkwx+F6v1EYD+AUpyRkdKCYFqACrzgf9C352LfuxyWRWg1/yhT/nRE5IsZWuZtCSK8CPeI0e/hF+jV7AJM4PO7KWCyr390bSiNtEtQM=);strokeColor=#d6b656;spacingTop=-3;spacingBottom=-3;spacingLeft=-3;spacingRight=-3;points=[];labelBackgroundColor=none;rounded=0;html=1;whiteSpace=wrap;" parent="1" vertex="1">
            <mxGeometry x="590" y="580" width="380" height="240" as="geometry" />
          </mxCell>
        </UserObject>
        <UserObject label="&lt;div style=&quot;font-size: 1px&quot;&gt;&lt;font style=&quot;font-size:17.46px;font-family:Helvetica;color:#000000;direction:ltr;letter-spacing:0px;line-height:120%;opacity:1&quot;&gt;External Publishers&lt;/font&gt;&lt;/div&gt;" tags="Background" id="8">
          <mxCell style="verticalAlign=middle;align=center;overflow=width;vsdxID=7;fillColor=#f8cecc;gradientColor=none;shape=stencil(nZBRDoQgDERP03+WHsHFe5iISyOCQdT19kIaIxq//Jtp3zTpAFaTaUYNUkwx+F6v1EYD+AUpyRkdKCYFqACrzgf9C352LfuxyWRWg1/yhT/nRE5IsZWuZtCSK8CPeI0e/hF+jV7AJM4PO7KWCyr390bSiNtEtQM=);strokeColor=#b85450;spacingTop=-3;spacingBottom=-3;spacingLeft=-3;spacingRight=-3;points=[];labelBackgroundColor=none;rounded=0;html=1;whiteSpace=wrap;" parent="1" vertex="1">
            <mxGeometry x="1270" y="580" width="380" height="240" as="geometry" />
          </mxCell>
        </UserObject>
        <UserObject label="" tags="Background" id="9">
          <mxCell style="vsdxID=810000;fillColor=none;gradientColor=none;strokeColor=none;spacingTop=-3;spacingBottom=-3;spacingLeft=-3;spacingRight=-3;points=[];labelBackgroundColor=none;rounded=0;html=1;whiteSpace=wrap;" parent="1" vertex="1">
            <mxGeometry x="200" y="670" width="120" height="110" as="geometry" />
          </mxCell>
        </UserObject>
        <mxCell id="11" value="&lt;div style=&quot;font-size: 1px&quot;&gt;&lt;font style=&quot;font-size:11.64px;font-family:Helvetica;color:#000000;direction:ltr;letter-spacing:0px;line-height:120%;opacity:1&quot;&gt;Workstation&lt;/font&gt;&lt;/div&gt;" style="verticalAlign=middle;align=center;overflow=width;vsdxID=9;fillColor=#ffffff;gradientColor=none;shape=stencil(nZBLDsIwDERP4y1KHcEFSrkAJ4iIIRYhqdJQPqcnrUEKiFV3npk3sjSg28GZngDVkFM8041tdqC3gMjBUeJcLtAd6PYYE51SvAYrujeFRDU7ZKXTTDQqkw57ftLb26zWYkvvEsfp311SJdGjVjsBPYcKbNRi9KP/wovRL7Ac8x6yFHsvc9b5737Fku119wI=);strokeColor=#000000;spacingTop=-3;spacingBottom=-3;spacingLeft=-3;spacingRight=-3;points=[];labelBackgroundColor=none;rounded=1;html=1;whiteSpace=wrap;" parent="9" vertex="1">
          <mxGeometry width="120" height="110" as="geometry" />
        </mxCell>
        <mxCell id="12" style="vsdxID=10;fillColor=#ffffff;gradientColor=none;shape=stencil(vZXdcsIgEIWfJpdh+JEg19a+B6OoTNPEIbHGty8paFiUtE6nvWPhLHx7sjsp2Ko7qKMuKO56277ps9n2h4K9FJSa5qCt6d2qYOuCrXat1Xvbnpqtj49qVI6r9/ZjvGHweXzMoPjiI4LxV/zqpZuT9Vrijymii6AnMAEP1G+E8BJCWSESUgYGFSGUBLFl/GhtmogPAz5HsCBzhDjBE6jiEDCqIewQhoSEjBwyToqHjAxCfqNeQDXOK6sfK8VTBJLPq1NTpUCiSoyNPKNJK9x8jcxnqYZlPigknfSZZklRpwRy34D0vpyU/Qoq0w7AM+7PzpBbTLO3M3XtR/d2nhtMugS3coIEje9VduNO7dUobyK2V4glkiKUFFqEZu7DQ6kG05W27VVv2gYMUq3sXpfurXJXq3242x91Z62P0Tb+DV222j+hg06znDMPa5FJKRxxCkqp/rWUJ+Gytf4JHOj9pO/dIv1HuS3/f2PrTw==);strokeColor=#0080F0;strokeWidth=2;spacingTop=-3;spacingBottom=-3;spacingLeft=-3;spacingRight=-3;points=[];labelBackgroundColor=#ffffff;rounded=0;html=1;whiteSpace=wrap;" parent="9" vertex="1">
          <mxGeometry x="73" y="19" width="30" height="17" as="geometry" />
        </mxCell>
        <mxCell id="13" style="vsdxID=11;fillColor=#505050;gradientColor=none;shape=stencil(pVjbVtswEPyavO6RtLo+0/Y/OCWUnFLCCdDC33dT27qMYoHLm+PMemdXexl7x1dPd9eP+51RT8+n48/9n8PN892Ov+yMOTzc7U+HZ7na8dcdX90eT/sfp+PLw830+/H6jDxf/Tr+Pj/hdbIziVw8Wxn1Nt2J6t/PbxP6/vBQoZMlDp9AW7uO7plsQ7dMIMpIyrRoR8y1wfeX02ShZxNPys0mGm3Uq5lRTMnOqPlWZApz1K/co+ZbUdMouspgzoUhp4d8K5P5llXkga4jb1q6HMkjXclWbOkW1OWTdhTbk+4MkG+KxJDfmsrMTivV0j3H5Fu6BcM5Vzatky34fBTGjqgWA52P2OuWqIRjGAqhKhfOeVrY50LAQmzJBkUpbatcMcHC9ZQgsQJSGvhK+lPL1ydKpuWbFOnhwYpN0K3/xKQT+NcUoHFkXCg42iCxQuMIyg1PK4Tcf9m/pQiNGyQy3fmPsfUfDWH4ltIw+1IbLnXuE7iPtiTW5NqIkP4atfgPZP3Qf2VTWg2PvxpSb9hqdfDgfcFcLFWrqZ3IgEam0socW6aFwzKdEmkHeZJoWqI16KNpqm2WNHnSsXUvFLGr68PkLvCPVom1ZC8UqQX3IfdNXaQW3KcyIor/8YxwhjzkXpoUm8TlxxT/pqtSQSkG/3m6rPnnrkrr8WMyysLp16OMcyxp21D9gBxo9UOi6Bu89utPl6KJ7jNos47uiWwC+/UQ250oxTBKYAt2S5OsHDZszzJWsiwp6sE0JvmIiaHCR3PILft8ITgeQ1UxtIRzGSoCeoYYNlWF4ctZaUlW+Hkg2aHCMqFTWGhwQRHiJio2RWHJuoZNJDrMwoypUZXKGhRfbTELAz/WkFitW/EiaUb4ntB2g3dUcMdoI1427juElgm9ZtDVgIQIbwUyQSOsOSOaamGyzNnUiddzCcKaLajLndi/pKFB142Vic423rWEBRVQbZctWC3GrETLYjJDXSDTwOBizK2a3TtSMBEE1MkCU95wGFFr7nUvS1R3XrIzNIpXnadYJYsU7EVB2aF/af28y3W2iTCvWXRJrwssjET2eUpm/1vWSgeWi/IZ4/Zwfz99Bcn/r33jaB872Bz4ZrgBOlTG/w1Vq+FD6HKBX3zk1vS1iL/+BQ==);strokeColor=none;spacingTop=-3;spacingBottom=-3;spacingLeft=-3;spacingRight=-3;points=[];labelBackgroundColor=none;rounded=0;html=1;whiteSpace=wrap;" parent="9" vertex="1">
          <mxGeometry x="16" y="38" width="53" height="56" as="geometry" />
        </mxCell>
        <UserObject label="&lt;div style=&quot;font-size: 1px&quot;&gt;&lt;font style=&quot;font-size:11.64px;font-family:Helvetica;color:#000000;direction:ltr;letter-spacing:0px;line-height:120%;opacity:1&quot;&gt;Pipeline&lt;br/&gt;&lt;/font&gt;&lt;font style=&quot;font-size:11.64px;font-family:Helvetica;color:#000000;direction:ltr;letter-spacing:0px;line-height:120%;opacity:1&quot;&gt;&lt;br/&gt;&lt;/font&gt;&lt;font style=&quot;font-size:11.64px;font-family:Helvetica;color:#000000;direction:ltr;letter-spacing:0px;line-height:120%;opacity:1&quot;&gt;(Image processing etc.)&lt;/font&gt;&lt;/div&gt;" tags="Background" id="14">
          <mxCell style="verticalAlign=middle;align=center;overflow=width;vsdxID=12;fillColor=#ffffff;gradientColor=none;shape=stencil(nZBLDsIwDERP4y1KHSEOUMoFOEFEDLEISZWG8jk9aQ1SQKy688y8kaUB3Q7O9ASohpzimW5sswO9BUQOjhLncoHuQLfHmOiU4jVY0b0pJKrZISudZqJRmXTY85Pe3maFa/GleInj9PAusZLoUaudgJ5DBTZqMfrRf+HF6BdYjnkQmYq9lz3r/HfAYsn4unsB);dashed=1;dashPattern=4.00 2.00;strokeColor=#000000;spacingTop=-3;spacingBottom=-3;spacingLeft=-3;spacingRight=-3;points=[];labelBackgroundColor=none;rounded=1;html=1;whiteSpace=wrap;" parent="1" vertex="1">
            <mxGeometry x="380" y="555" width="120" height="115" as="geometry" />
          </mxCell>
        </UserObject>
        <UserObject label="" tags="Background" id="15">
          <mxCell style="vsdxID=1410000;fillColor=none;gradientColor=none;strokeColor=none;spacingTop=-3;spacingBottom=-3;spacingLeft=-3;spacingRight=-3;points=[];labelBackgroundColor=none;rounded=0;html=1;whiteSpace=wrap;" parent="1" vertex="1">
            <mxGeometry as="geometry" />
          </mxCell>
        </UserObject>
        <mxCell id="16" value="&lt;div style=&quot;font-size: 1px&quot;&gt;&lt;font style=&quot;font-size:10.67px;font-family:Helvetica;color:#000000;direction:ltr;letter-spacing:0px;line-height:120%;opacity:1&quot;&gt;HTTPS&lt;/font&gt;&lt;/div&gt;" style="verticalAlign=middle;align=center;overflow=width;vsdxID=17;fillColor=none;gradientColor=none;strokeColor=none;spacingTop=-3;spacingBottom=-3;spacingLeft=-3;spacingRight=-3;points=[];labelBackgroundColor=#ffffff;rounded=0;html=1;whiteSpace=wrap;" parent="15" vertex="1">
          <mxGeometry x="13" as="geometry" />
        </mxCell>
        <UserObject label="" tags="Background" id="72">
          <mxCell style="vsdxID=14;edgeStyle=none;startArrow=none;endArrow=classic;startSize=5;endSize=5;strokeColor=#000000;spacingTop=0;spacingBottom=0;spacingLeft=0;spacingRight=0;verticalAlign=middle;html=1;labelBackgroundColor=#ffffff;rounded=0;exitX=0;exitY=0.9090909090909091;exitDx=0;exitDy=0;exitPerimeter=0;entryX=0.5;entryY=0;entryDx=0;entryDy=0;entryPerimeter=0;" parent="15" source="17" target="57" edge="1">
            <mxGeometry relative="1" as="geometry">
              <mxPoint x="80" y="151" as="offset" />
              <Array as="points">
                <mxPoint x="270" y="260" />
              </Array>
            </mxGeometry>
          </mxCell>
        </UserObject>
        <UserObject label="&lt;div style=&quot;font-size: 1px&quot;&gt;&lt;font style=&quot;font-size:11.64px;font-family:Helvetica;color:#000000;direction:ltr;letter-spacing:0px;line-height:120%;opacity:1&quot;&gt;Specify &lt;br/&gt;&lt;/font&gt;&lt;font style=&quot;font-size:11.64px;font-family:Helvetica;color:#000000;direction:ltr;letter-spacing:0px;line-height:120%;opacity:1&quot;&gt;Frontend&lt;/font&gt;&lt;/div&gt;" tags="Background" id="17">
          <mxCell style="verticalAlign=middle;align=center;overflow=width;vsdxID=15;fillColor=#ffffff;gradientColor=none;shape=stencil(nZHdDsIgDIWfpreGQTTxes4X8AmIVGlEWDr8fXrZGhNmvFqvek6/luQAph287RG0GjKnCz7IZQ9mB1pT9MiUSwemA9OeEuOZ0y060b0tpFaTg052mpHWyvLxQG8Ub7Nab2cljBy5pvv4+FNQJaNXrfYCBooV2KjF6Ff/hRejM7A0UzgSG4Ug2dbz3zCLJR9hug8=);strokeColor=#000000;spacingTop=-3;spacingBottom=-3;spacingLeft=-3;spacingRight=-3;points=[];labelBackgroundColor=none;rounded=1;html=1;whiteSpace=wrap;" parent="1" vertex="1">
            <mxGeometry x="380" y="220" width="120" height="44" as="geometry" />
          </mxCell>
        </UserObject>
        <UserObject label="&lt;div style=&quot;font-size: 1px&quot;&gt;&lt;font style=&quot;font-size:15.52px;font-family:Helvetica;color:#000000;direction:ltr;letter-spacing:0px;line-height:120%;opacity:1&quot;&gt;Researcher&lt;/font&gt;&lt;/div&gt;" tags="Background" id="18">
          <mxCell style="verticalAlign=middle;align=center;overflow=width;vsdxID=21;fillColor=#82BD82;gradientColor=none;shape=stencil(nVZbctswDDyNfjEkIL6+0/QemcaJNXXtjOK0zu1DDR8iQYt2+kfDCy6eSw308L5/etsNKN7P8+n37t/0fN4P9GNAnI773Tyd/Wmgx4EeXk7z7nU+fRyfw++3pwW5nP6c/i43XIKfA6kWJxSf0aBgDJafAf/rYw4OMgCkALTRJZoMgsNgumAwoQVpIiqa1Agucl0omkSEEIdskCsDxMjLayOTHkFLRm5AUE1uRI468Wtv0j1+i6Cx5tcWUNf8ToDEmt9KIMbvUVbV/E3xD9PxW82qm4sGjKwc0PSyK/Gp22NOOGVHBSqaRlA3OpsRG9QaAV1NXVyKec4yCNv4qEXRPWmblptcnrM8VC356FL5t/N2N9aJ2pqX12LbGWxDpBZ1NXN/WIXgZTocgo7k/7dUwhBQGui8T7LbTx8dq6lfVM0XVYHki4pgdZ2W30pt67SUBNMtq1/urD+prAaUYwOlwRIrqwVh2EAVqPsGqnBIe4Q500KlbM0t+rMkunOkgAmTqOmQQGq2PEVQ1KLuyrV0kGsJ2fJ46bIjWx6TRTqRLyPNyJdGd/mlXxaWuNLJJ/OvWpLojWp2twAlPfYLRT32wiVanAXHklegeOEFa7UfGPYUJcj1h8AXPc3OVTiP040wjnWgawzp1VorkuIsk2meqPurVPqkh1TmDBK/1Znsc9UHPiOlFKUZYVrUqNxNfRNVLTuFz0X7PrTb0P+Gis3EmbT7A/8m9KbwPUmPXw==);strokeColor=#82b366;spacingTop=-3;spacingBottom=-3;spacingLeft=-3;spacingRight=-3;points=[];labelBackgroundColor=none;rounded=0;html=1;whiteSpace=wrap;" parent="1" vertex="1">
            <mxGeometry x="51" y="203" width="78" height="78" as="geometry" />
          </mxCell>
        </UserObject>
        <UserObject label="&lt;div style=&quot;font-size: 1px&quot;&gt;&lt;font style=&quot;font-size:15.52px;font-family:Helvetica;color:#232f3e;direction:ltr;letter-spacing:0px;line-height:120%;opacity:1&quot;&gt;Digitiser&lt;/font&gt;&lt;/div&gt;" tags="Background" id="19">
          <mxCell style="verticalAlign=middle;align=center;overflow=width;vsdxID=23;fillColor=#262DFC;gradientColor=none;shape=stencil(nVZbctswDDyNfjEkIL6+0/QemcaJNXXtjOK0zu1DDR8iQYt2+kfDCy6eSw308L5/etsNKN7P8+n37t/0fN4P9GNAnI773Tyd/Wmgx4EeXk7z7nU+fRyfw++3pwW5nP6c/i43XIKfA6kWJxSf0aBgDJafAf/rYw4OMgCkALTRJZoMgsNgumAwoQVpIiqa1Agucl0omkSEEIdskCsDxMjLayOTHkFLRm5AUE1uRI468Wtv0j1+i6Cx5tcWUNf8ToDEmt9KIMbvUVbV/E3xD9PxW82qm4sGjKwc0PSyK/Gp22NOOGVHBSqaRlA3OpsRG9QaAV1NXVyKec4yCNv4qEXRPWmblptcnrM8VC356FL5t/N2N9aJ2pqX12LbGWxDpBZ1NXN/WIXgZTocgo7k/7dUwhBQGui8T7LbTx8dq6lfVM0XVYHki4pgdZ2W30pt67SUBNMtq1/urD+prAaUYwOlwRIrqwVh2EAVqPsGqnBIe4Q500KlbM0t+rMkunOkgAmTqOmQQGq2PEVQ1KLuyrV0kGsJ2fJ46bIjWx6TRTqRLyPNyJdGd/mlXxaWuNLJJ/OvWpLojWp2twAlPfYLRT32wiVanAXHklegeOEFa7UfGPYUJcj1h8AXPc3OVTiP040wjnWgawzp1VorkuIsk2meqPurVPqkh1TmDBK/1Znsc9UHPiOlFKUZYVrUqNxNfRNVLTuFz0X7PrTb0P+Gis3EmbT7A/8m9KbwPUmPXw==);strokeColor=none;spacingTop=-3;spacingBottom=-3;spacingLeft=-3;spacingRight=-3;points=[];labelBackgroundColor=none;rounded=0;html=1;whiteSpace=wrap;" parent="1" vertex="1">
            <mxGeometry x="40" y="686" width="78" height="78" as="geometry" />
          </mxCell>
        </UserObject>
        <UserObject label="&lt;div style=&quot;font-size: 1px&quot;&gt;&lt;font style=&quot;font-size:11.64px;font-family:Helvetica;color:#000000;direction:ltr;letter-spacing:0px;line-height:120%;opacity:1&quot;&gt;Docker Swarm&lt;/font&gt;&lt;/div&gt;" tags="Background" id="20">
          <mxCell style="verticalAlign=middle;align=center;overflow=width;vsdxID=24;fillColor=#ffffff;gradientColor=none;shape=stencil(nZBRDoQgDERP03+WHsHFe5iISyOCQdT19kIaIxq//Jtp3zTpAFaTaUYNUkwx+F6v1EYD+AUpyRkdKCYFqACrzgf9C352LfuxyWRWg1/yhT/nRE5IsZWuZtCSK8CPeI0e/hF+jV7AJM4PO7KWCyr390bSiNtEtQM=);strokeColor=#000000;spacingTop=-3;spacingBottom=-3;spacingLeft=-3;spacingRight=-3;points=[];labelBackgroundColor=none;rounded=0;html=1;whiteSpace=wrap;" parent="1" vertex="1">
            <mxGeometry x="775" y="215" width="595" height="280" as="geometry" />
          </mxCell>
        </UserObject>
        <UserObject label="" tags="Background" id="21">
          <mxCell style="vsdxID=2510000;fillColor=none;gradientColor=none;strokeColor=none;spacingTop=-3;spacingBottom=-3;spacingLeft=-3;spacingRight=-3;points=[];labelBackgroundColor=none;rounded=0;html=1;whiteSpace=wrap;" parent="1" vertex="1">
            <mxGeometry as="geometry" />
          </mxCell>
        </UserObject>
        <mxCell id="22" value="&lt;div style=&quot;font-size: 1px&quot;&gt;&lt;font style=&quot;font-size:10.67px;font-family:Helvetica;color:#000000;direction:ltr;letter-spacing:0px;line-height:120%;opacity:1&quot;&gt;HTTPS&lt;/font&gt;&lt;/div&gt;" style="verticalAlign=middle;align=center;overflow=width;vsdxID=28;fillColor=none;gradientColor=none;strokeColor=none;spacingTop=-3;spacingBottom=-3;spacingLeft=-3;spacingRight=-3;points=[];labelBackgroundColor=#ffffff;rounded=0;html=1;whiteSpace=wrap;" parent="21" vertex="1">
          <mxGeometry y="-1" as="geometry" />
        </mxCell>
        <UserObject label="" tags="Background" id="76">
          <mxCell style="vsdxID=25;edgeStyle=none;startArrow=none;endArrow=classic;startSize=5;endSize=5;strokeColor=#000000;spacingTop=0;spacingBottom=0;spacingLeft=0;spacingRight=0;verticalAlign=middle;html=1;labelBackgroundColor=#ffffff;rounded=0;exitX=1;exitY=0.75;exitDx=0;exitDy=0;exitPerimeter=0;entryX=0;entryY=0.25;entryDx=0;entryDy=0;entryPerimeter=0;" parent="21" source="23" target="31" edge="1">
            <mxGeometry relative="1" as="geometry">
              <mxPoint x="-33" y="117" as="offset" />
              <Array as="points" />
            </mxGeometry>
          </mxCell>
        </UserObject>
        <UserObject label="&lt;div style=&quot;font-size: 1px&quot;&gt;&lt;font style=&quot;font-size:11.64px;font-family:Helvetica;color:#000000;direction:ltr;letter-spacing:0px;line-height:120%;opacity:1&quot;&gt;DaSSCo &lt;br/&gt;&lt;/font&gt;&lt;font style=&quot;font-size:11.64px;font-family:Helvetica;color:#000000;direction:ltr;letter-spacing:0px;line-height:120%;opacity:1&quot;&gt;Asset Service&lt;/font&gt;&lt;/div&gt;" tags="Background" id="23">
          <mxCell style="verticalAlign=middle;align=center;overflow=width;vsdxID=26;fillColor=#ffffff;gradientColor=none;shape=stencil(nZBLDsIwDERP433qHKGUC3CCiBhiEZLKDd/Tk9YgBcSqO8/MG1kasP0U3EiAZiqST3RjXwLYDSByCiRc6gV2ANsfstBR8iV51aOrJJrFIa+dbqbRONnv+ElvD9XU1jlf5293zYxGj1ZtFYycGrAzq9GP/guvRr/Aeixr6E4co47Z5r/rVUuXt8ML);strokeColor=#000000;spacingTop=-3;spacingBottom=-3;spacingLeft=-3;spacingRight=-3;points=[];labelBackgroundColor=none;rounded=1;html=1;whiteSpace=wrap;" parent="1" vertex="1">
            <mxGeometry x="1051" y="246" width="120" height="80" as="geometry" />
          </mxCell>
        </UserObject>
        <UserObject label="" tags="Background" id="24">
          <mxCell style="vsdxID=3110000;fillColor=none;gradientColor=none;strokeColor=none;spacingTop=-3;spacingBottom=-3;spacingLeft=-3;spacingRight=-3;points=[];labelBackgroundColor=none;rounded=0;html=1;whiteSpace=wrap;" parent="1" vertex="1">
            <mxGeometry as="geometry" />
          </mxCell>
        </UserObject>
        <mxCell id="25" value="&lt;div style=&quot;font-size: 1px&quot;&gt;&lt;font style=&quot;font-size:10.67px;font-family:Helvetica;color:#000000;direction:ltr;letter-spacing:0px;line-height:120%;opacity:1&quot;&gt;HTTPS&lt;/font&gt;&lt;/div&gt;" style="verticalAlign=middle;align=center;overflow=width;vsdxID=33;fillColor=none;gradientColor=none;strokeColor=none;spacingTop=-3;spacingBottom=-3;spacingLeft=-3;spacingRight=-3;points=[];labelBackgroundColor=#ffffff;rounded=0;html=1;whiteSpace=wrap;" parent="24" vertex="1">
          <mxGeometry as="geometry" />
        </mxCell>
        <UserObject label="" tags="Background" id="78">
          <mxCell style="vsdxID=31;edgeStyle=none;startArrow=none;endArrow=classic;startSize=5;endSize=5;strokeColor=#000000;spacingTop=0;spacingBottom=0;spacingLeft=0;spacingRight=0;verticalAlign=middle;html=1;labelBackgroundColor=#ffffff;rounded=0;exitX=1;exitY=0.25;exitDx=0;exitDy=0;exitPerimeter=0;entryX=0;entryY=0.75;entryDx=0;entryDy=0;entryPerimeter=0;" parent="24" source="30" target="31" edge="1">
            <mxGeometry relative="1" as="geometry">
              <mxPoint x="-32" y="110" as="offset" />
              <Array as="points" />
            </mxGeometry>
          </mxCell>
        </UserObject>
        <UserObject label="" tags="Background" id="26">
          <mxCell style="vsdxID=3410000;fillColor=none;gradientColor=none;strokeColor=none;spacingTop=-3;spacingBottom=-3;spacingLeft=-3;spacingRight=-3;points=[];labelBackgroundColor=none;rounded=0;html=1;whiteSpace=wrap;" parent="1" vertex="1">
            <mxGeometry as="geometry" />
          </mxCell>
        </UserObject>
        <mxCell id="27" value="&lt;div style=&quot;font-size: 1px&quot;&gt;&lt;font style=&quot;font-size:10.67px;font-family:Helvetica;color:#000000;direction:ltr;letter-spacing:0px;line-height:120%;opacity:1&quot;&gt;HTTPS&lt;/font&gt;&lt;/div&gt;" style="verticalAlign=middle;align=center;overflow=width;vsdxID=35;fillColor=none;gradientColor=none;strokeColor=none;spacingTop=-3;spacingBottom=-3;spacingLeft=-3;spacingRight=-3;points=[];labelBackgroundColor=#ffffff;rounded=0;html=1;whiteSpace=wrap;" parent="26" vertex="1">
          <mxGeometry as="geometry" />
        </mxCell>
        <UserObject label="" tags="Background" id="79">
          <mxCell style="vsdxID=34;edgeStyle=none;startArrow=classic;endArrow=classic;startSize=5;endSize=5;strokeColor=#000000;spacingTop=0;spacingBottom=0;spacingLeft=0;spacingRight=0;verticalAlign=middle;html=1;labelBackgroundColor=#ffffff;rounded=0;exitX=0.5;exitY=0;exitDx=0;exitDy=0;exitPerimeter=0;entryX=0.5;entryY=1;entryDx=0;entryDy=0;entryPerimeter=0;" parent="26" source="30" target="23" edge="1">
            <mxGeometry relative="1" as="geometry">
              <mxPoint y="126" as="offset" />
              <Array as="points" />
            </mxGeometry>
          </mxCell>
        </UserObject>
        <UserObject label="" tags="Background" id="28">
          <mxCell style="vsdxID=3610000;fillColor=none;gradientColor=none;strokeColor=none;spacingTop=-3;spacingBottom=-3;spacingLeft=-3;spacingRight=-3;points=[];labelBackgroundColor=none;rounded=0;html=1;whiteSpace=wrap;" parent="1" vertex="1">
            <mxGeometry as="geometry" />
          </mxCell>
        </UserObject>
        <mxCell id="29" value="&lt;div style=&quot;font-size: 1px&quot;&gt;&lt;font style=&quot;font-size:10.67px;font-family:Helvetica;color:#000000;direction:ltr;letter-spacing:0px;line-height:120%;opacity:1&quot;&gt;SFTP&lt;/font&gt;&lt;/div&gt;" style="verticalAlign=middle;align=center;overflow=width;vsdxID=37;fillColor=none;gradientColor=none;strokeColor=none;spacingTop=-3;spacingBottom=-3;spacingLeft=-3;spacingRight=-3;points=[];labelBackgroundColor=#ffffff;rounded=0;html=1;whiteSpace=wrap;" parent="28" vertex="1">
          <mxGeometry x="-18" y="16" as="geometry" />
        </mxCell>
        <mxCell id="80" parent="28" vertex="1">
          <mxGeometry x="840" y="670" as="geometry" />
        </mxCell>
        <UserObject label="" tags="Background" id="81">
          <mxCell style="vsdxID=36;edgeStyle=none;startArrow=none;endArrow=classic;startSize=5;endSize=5;strokeColor=#000000;spacingTop=0;spacingBottom=0;spacingLeft=0;spacingRight=0;verticalAlign=middle;html=1;labelBackgroundColor=#ffffff;rounded=0;exitX=0.25;exitY=1;exitDx=0;exitDy=0;exitPerimeter=0;" parent="1" source="30" target="80" edge="1">
            <mxGeometry relative="1" as="geometry">
              <mxPoint x="120" y="209" as="offset" />
              <Array as="points" />
            </mxGeometry>
          </mxCell>
        </UserObject>
        <UserObject label="&lt;div style=&quot;font-size: 1px&quot;&gt;&lt;font style=&quot;font-size:11.64px;font-family:Helvetica;color:#000000;direction:ltr;letter-spacing:0px;line-height:120%;opacity:1&quot;&gt;DaSSCo &lt;br/&gt;&lt;/font&gt;&lt;font style=&quot;font-size:11.64px;font-family:Helvetica;color:#000000;direction:ltr;letter-spacing:0px;line-height:120%;opacity:1&quot;&gt;File Proxy&lt;/font&gt;&lt;/div&gt;" tags="Background" id="30">
          <mxCell style="verticalAlign=middle;align=center;overflow=width;vsdxID=32;fillColor=#ffffff;gradientColor=none;shape=stencil(nZBLDsIwDERP433qHKGUC3CCiBhiEZLKDd/Tk9YgBcSqO8/MG1kasP0U3EiAZiqST3RjXwLYDSByCiRc6gV2ANsfstBR8iV51aOrJJrFIa+dbqbRONnv+ElvD9XU1jlf5293zYxGj1ZtFYycGrAzq9GP/guvRr/Aeixr6E4co47Z5r/rVUuXt8ML);strokeColor=#000000;spacingTop=-3;spacingBottom=-3;spacingLeft=-3;spacingRight=-3;points=[];labelBackgroundColor=none;rounded=1;html=1;whiteSpace=wrap;" parent="1" vertex="1">
            <mxGeometry x="1051" y="375" width="120" height="80" as="geometry" />
          </mxCell>
        </UserObject>
        <UserObject label="&lt;div style=&quot;font-size: 1px&quot;&gt;&lt;font style=&quot;font-size:11.64px;font-family:Helvetica;color:#000000;direction:ltr;letter-spacing:0px;line-height:120%;opacity:1&quot;&gt;DaSSCo &lt;br/&gt;&lt;/font&gt;&lt;font style=&quot;font-size:11.64px;font-family:Helvetica;color:#000000;direction:ltr;letter-spacing:0px;line-height:120%;opacity:1&quot;&gt;Keycloak&lt;/font&gt;&lt;/div&gt;" tags="Background" id="31">
          <mxCell style="verticalAlign=middle;align=center;overflow=width;vsdxID=27;fillColor=#ffffff;gradientColor=none;shape=stencil(nZBLDsIwDERP433qHKGUC3CCiBhiEZLKDd/Tk9YgBcSqO8/MG1kasP0U3EiAZiqST3RjXwLYDSByCiRc6gV2ANsfstBR8iV51aOrJJrFIa+dbqbRONnv+ElvD9XU1jlf5293zYxGj1ZtFYycGrAzq9GP/guvRr/Aeixr6E4co47Z5r/rVUuXt8ML);strokeColor=#000000;spacingTop=-3;spacingBottom=-3;spacingLeft=-3;spacingRight=-3;points=[];labelBackgroundColor=none;rounded=1;html=1;whiteSpace=wrap;" parent="1" vertex="1">
            <mxGeometry x="1235" y="318" width="120" height="80" as="geometry" />
          </mxCell>
        </UserObject>
        <UserObject label="&lt;div style=&quot;font-size: 1px&quot;&gt;&lt;font style=&quot;font-size:11.64px;font-family:Helvetica;color:#000000;direction:ltr;letter-spacing:0px;line-height:120%;opacity:1&quot;&gt;ERDA File System&lt;/font&gt;&lt;/div&gt;" tags="Background" id="32">
          <mxCell style="verticalAlign=middle;align=center;overflow=width;vsdxID=38;fillColor=#ffffff;gradientColor=none;shape=stencil(nZBLDsIwDERP433qHKGUC3CCiBhiEZLKDd/Tk9YgBcSqO8/MG1kasP0U3EiAZiqST3RjXwLYDSByCiRc6gV2ANsfstBR8iV51aOrJJrFIa+dbqbRONnv+ElvD9XU1jlf5293zYxGj1ZtFYycGrAzq9GP/guvRr/Aeixr6E4co47Z5r/rVUuXt8ML);strokeColor=#000000;spacingTop=-3;spacingBottom=-3;spacingLeft=-3;spacingRight=-3;points=[];labelBackgroundColor=none;rounded=1;html=1;whiteSpace=wrap;" parent="1" vertex="1">
            <mxGeometry x="720" y="660" width="120" height="80" as="geometry" />
          </mxCell>
        </UserObject>
        <UserObject label="&lt;div style=&quot;font-size: 1px&quot;&gt;&lt;font style=&quot;font-size:11.64px;font-family:Helvetica;color:#000000;direction:ltr;letter-spacing:0px;line-height:120%;opacity:1&quot;&gt;External Publisher&lt;/font&gt;&lt;/div&gt;" tags="Background" id="33">
          <mxCell style="verticalAlign=middle;align=center;overflow=width;vsdxID=39;fillColor=#ffffff;gradientColor=none;shape=stencil(nZBLDsIwDERP433qHKGUC3CCiBhiEZLKDd/Tk9YgBcSqO8/MG1kasP0U3EiAZiqST3RjXwLYDSByCiRc6gV2ANsfstBR8iV51aOrJJrFIa+dbqbRONnv+ElvD9XU1jlf5293zYxGj1ZtFYycGrAzq9GP/guvRr/Aeixr6E4co47Z5r/rVUuXt8ML);strokeColor=#000000;spacingTop=-3;spacingBottom=-3;spacingLeft=-3;spacingRight=-3;points=[];labelBackgroundColor=none;rounded=1;html=1;whiteSpace=wrap;" parent="1" vertex="1">
            <mxGeometry x="1423" y="690" width="120" height="80" as="geometry" />
          </mxCell>
        </UserObject>
        <UserObject label="&lt;div style=&quot;font-size: 1px&quot;&gt;&lt;font style=&quot;font-size:11.64px;font-family:Helvetica;color:#000000;direction:ltr;letter-spacing:0px;line-height:120%;opacity:1&quot;&gt;External Publisher&lt;/font&gt;&lt;/div&gt;" tags="Background" id="34">
          <mxCell style="verticalAlign=middle;align=center;overflow=width;vsdxID=40;fillColor=#ffffff;gradientColor=none;shape=stencil(nZBLDsIwDERP433qHKGUC3CCiBhiEZLKDd/Tk9YgBcSqO8/MG1kasP0U3EiAZiqST3RjXwLYDSByCiRc6gV2ANsfstBR8iV51aOrJJrFIa+dbqbRONnv+ElvD9XU1jlf5293zYxGj1ZtFYycGrAzq9GP/guvRr/Aeixr6E4co47Z5r/rVUuXt8ML);strokeColor=#000000;spacingTop=-3;spacingBottom=-3;spacingLeft=-3;spacingRight=-3;points=[];labelBackgroundColor=none;rounded=1;html=1;whiteSpace=wrap;" parent="1" vertex="1">
            <mxGeometry x="1413" y="680" width="120" height="80" as="geometry" />
          </mxCell>
        </UserObject>
        <UserObject label="&lt;div style=&quot;font-size: 1px&quot;&gt;&lt;font style=&quot;font-size:11.64px;font-family:Helvetica;color:#000000;direction:ltr;letter-spacing:0px;line-height:120%;opacity:1&quot;&gt;External Publisher&lt;/font&gt;&lt;/div&gt;" tags="Background" id="35">
          <mxCell style="verticalAlign=middle;align=center;overflow=width;vsdxID=41;fillColor=#ffffff;gradientColor=none;shape=stencil(nZBLDsIwDERP433qHKGUC3CCiBhiEZLKDd/Tk9YgBcSqO8/MG1kasP0U3EiAZiqST3RjXwLYDSByCiRc6gV2ANsfstBR8iV51aOrJJrFIa+dbqbRONnv+ElvD9XU1jlf5293zYxGj1ZtFYycGrAzq9GP/guvRr/Aeixr6E4co47Z5r/rVUuXt8ML);strokeColor=#000000;spacingTop=-3;spacingBottom=-3;spacingLeft=-3;spacingRight=-3;points=[];labelBackgroundColor=none;rounded=1;html=1;whiteSpace=wrap;" parent="1" vertex="1">
            <mxGeometry x="1403" y="670" width="120" height="80" as="geometry" />
          </mxCell>
        </UserObject>
        <UserObject label="" tags="Background" id="36">
          <mxCell style="vsdxID=4210000;fillColor=none;gradientColor=none;strokeColor=none;spacingTop=-3;spacingBottom=-3;spacingLeft=-3;spacingRight=-3;points=[];labelBackgroundColor=none;rounded=0;html=1;whiteSpace=wrap;" parent="1" vertex="1">
            <mxGeometry as="geometry" />
          </mxCell>
        </UserObject>
        <mxCell id="37" value="&lt;div style=&quot;font-size: 1px&quot;&gt;&lt;font style=&quot;font-size:10.67px;font-family:Helvetica;color:#000000;direction:ltr;letter-spacing:0px;line-height:120%;opacity:1&quot;&gt;HTTPS&lt;/font&gt;&lt;/div&gt;" style="verticalAlign=middle;align=center;overflow=width;vsdxID=44;fillColor=none;gradientColor=none;strokeColor=none;spacingTop=-3;spacingBottom=-3;spacingLeft=-3;spacingRight=-3;points=[];labelBackgroundColor=#ffffff;rounded=0;html=1;whiteSpace=wrap;" parent="36" vertex="1">
          <mxGeometry as="geometry" />
        </mxCell>
        <UserObject label="" tags="Background" id="82">
          <mxCell style="vsdxID=42;edgeStyle=none;startArrow=none;endArrow=classic;startSize=5;endSize=5;strokeColor=#000000;spacingTop=0;spacingBottom=0;spacingLeft=0;spacingRight=0;verticalAlign=middle;html=1;labelBackgroundColor=#ffffff;rounded=0;exitX=0;exitY=0.5;exitDx=0;exitDy=0;exitPerimeter=0;entryX=0.75;entryY=1;entryDx=0;entryDy=0;entryPerimeter=0;" parent="36" source="38" target="30" edge="1">
            <mxGeometry relative="1" as="geometry">
              <mxPoint x="126" y="224" as="offset" />
              <Array as="points" />
            </mxGeometry>
          </mxCell>
        </UserObject>
        <UserObject label="&lt;div style=&quot;font-size: 1px&quot;&gt;&lt;font style=&quot;font-size:11.64px;font-family:Helvetica;color:#000000;direction:ltr;letter-spacing:0px;line-height:120%;opacity:1&quot;&gt;External Publisher&lt;/font&gt;&lt;/div&gt;" tags="Background" id="38">
          <mxCell style="verticalAlign=middle;align=center;overflow=width;vsdxID=43;fillColor=#ffffff;gradientColor=none;shape=stencil(nZBLDsIwDERP433qHKGUC3CCiBhiEZLKDd/Tk9YgBcSqO8/MG1kasP0U3EiAZiqST3RjXwLYDSByCiRc6gV2ANsfstBR8iV51aOrJJrFIa+dbqbRONnv+ElvD9XU1jlf5293zYxGj1ZtFYycGrAzq9GP/guvRr/Aeixr6E4co47Z5r/rVUuXt8ML);strokeColor=#000000;spacingTop=-3;spacingBottom=-3;spacingLeft=-3;spacingRight=-3;points=[];labelBackgroundColor=none;rounded=1;html=1;whiteSpace=wrap;" parent="1" vertex="1">
            <mxGeometry x="1393" y="660" width="120" height="80" as="geometry" />
          </mxCell>
        </UserObject>
        <UserObject label="&lt;div style=&quot;font-size: 1px&quot;&gt;&lt;font style=&quot;font-size:11.64px;font-family:Helvetica;color:#000000;direction:ltr;letter-spacing:0px;line-height:120%;opacity:1&quot;&gt;Linux Server&lt;br/&gt;&lt;/font&gt;&lt;font style=&quot;font-size:11.64px;font-family:Helvetica;color:#000000;direction:ltr;letter-spacing:0px;line-height:120%;opacity:1&quot;&gt;( With persistent volume )&lt;/font&gt;&lt;/div&gt;" tags="Background" id="39">
          <mxCell style="verticalAlign=middle;align=center;overflow=width;vsdxID=45;fillColor=#ffffff;gradientColor=none;shape=stencil(nZBRDoQgDERP03+WHsHFe5iISyOCQdT19kIaIxq//Jtp3zTpAFaTaUYNUkwx+F6v1EYD+AUpyRkdKCYFqACrzgf9C352LfuxyWRWg1/yhT/nRE5IsZWuZtCSK8CPeI0e/hF+jV7AJM4PO7KWCyr390bSiNtEtQM=);strokeColor=#000000;spacingTop=-3;spacingBottom=-3;spacingLeft=-3;spacingRight=-3;points=[];labelBackgroundColor=none;rounded=0;html=1;whiteSpace=wrap;" parent="1" vertex="1">
            <mxGeometry x="1410" y="215" width="210" height="280" as="geometry" />
          </mxCell>
        </UserObject>
        <UserObject label="&lt;div style=&quot;font-size: 1px&quot;&gt;&lt;font style=&quot;font-size:11.64px;font-family:Helvetica;color:#000000;direction:ltr;letter-spacing:0px;line-height:120%;opacity:1&quot;&gt;Apache Age&lt;/font&gt;&lt;/div&gt;" tags="Background" id="40">
          <mxCell style="verticalAlign=middle;align=center;overflow=width;vsdxID=46;fillColor=#ffffff;gradientColor=none;shape=stencil(jZTRdoMgDIafhtscSCrqdde+R89qJ2dOe6jd3NtPhxXDkO4uhD/88QsiaH+rT9dKoLz1tnuvvsy5rwW9CETT1pU1/RgJOgjaXzpbvdnu3p7d+nqalFP00X1OJwyuTk4VKL/dSiFkv4mj077erRMrrp6XGWiXGNAlEIHKWYOsZKC55HEErbc37DQBam4puWGeQVlwQwWE3LPIgDS3JdA65VzuICfurEEqbq6k5NYlqIJbewnFCTemXU3Dy+fO8/Q8vN73vQsI5aBVQEg+GcpDsOG6nnLYyMDHvpDxfREXUPxLOZf0LR0Df70vpmnc37Hsb939kPaz2/+Htir/QRuzNGxMekZYLwfGUa+aiqNO4gvQjUH4kowp9wrR4Qc=);strokeColor=#000000;spacingTop=-3;spacingBottom=-3;spacingLeft=-3;spacingRight=-3;points=[];labelBackgroundColor=none;rounded=0;html=1;whiteSpace=wrap;" parent="1" vertex="1">
            <mxGeometry x="1468" y="298" width="115" height="120" as="geometry" />
          </mxCell>
        </UserObject>
        <UserObject label="" tags="Background" id="41">
          <mxCell style="vsdxID=4710000;fillColor=none;gradientColor=none;strokeColor=none;spacingTop=-3;spacingBottom=-3;spacingLeft=-3;spacingRight=-3;points=[];labelBackgroundColor=none;rounded=0;html=1;whiteSpace=wrap;" parent="1" vertex="1">
            <mxGeometry as="geometry" />
          </mxCell>
        </UserObject>
        <mxCell id="42" value="&lt;div style=&quot;font-size: 1px&quot;&gt;&lt;font style=&quot;font-size:10.67px;font-family:Helvetica;color:#000000;direction:ltr;letter-spacing:0px;line-height:120%;opacity:1&quot;&gt;TCP&lt;/font&gt;&lt;/div&gt;" style="verticalAlign=middle;align=center;overflow=width;vsdxID=48;fillColor=none;gradientColor=none;strokeColor=none;spacingTop=-3;spacingBottom=-3;spacingLeft=-3;spacingRight=-3;points=[];labelBackgroundColor=#ffffff;rounded=0;html=1;whiteSpace=wrap;" parent="41" vertex="1">
          <mxGeometry x="139" y="-9" as="geometry" />
        </mxCell>
        <UserObject label="" tags="Background" id="83">
          <mxCell style="vsdxID=47;edgeStyle=none;startArrow=none;endArrow=classic;startSize=5;endSize=5;strokeColor=#000000;spacingTop=0;spacingBottom=0;spacingLeft=0;spacingRight=0;verticalAlign=middle;html=1;labelBackgroundColor=#ffffff;rounded=0;exitX=1;exitY=0.5;exitDx=0;exitDy=0;exitPerimeter=0;entryX=0;entryY=0.875;entryDx=0;entryDy=0;entryPerimeter=0;" parent="41" source="30" target="40" edge="1">
            <mxGeometry relative="1" as="geometry">
              <mxPoint x="-149" y="107" as="offset" />
              <Array as="points" />
            </mxGeometry>
          </mxCell>
        </UserObject>
        <UserObject label="" tags="Background" id="43">
          <mxCell style="vsdxID=4910000;fillColor=none;gradientColor=none;strokeColor=none;spacingTop=-3;spacingBottom=-3;spacingLeft=-3;spacingRight=-3;points=[];labelBackgroundColor=none;rounded=0;html=1;whiteSpace=wrap;" parent="1" vertex="1">
            <mxGeometry as="geometry" />
          </mxCell>
        </UserObject>
        <mxCell id="44" value="&lt;div style=&quot;font-size: 1px&quot;&gt;&lt;font style=&quot;font-size:10.67px;font-family:Helvetica;color:#000000;direction:ltr;letter-spacing:0px;line-height:120%;opacity:1&quot;&gt;TCP&lt;/font&gt;&lt;/div&gt;" style="verticalAlign=middle;align=center;overflow=width;vsdxID=50;fillColor=none;gradientColor=none;strokeColor=none;spacingTop=-3;spacingBottom=-3;spacingLeft=-3;spacingRight=-3;points=[];labelBackgroundColor=#ffffff;rounded=0;html=1;whiteSpace=wrap;" parent="43" vertex="1">
          <mxGeometry x="111" y="14" as="geometry" />
        </mxCell>
        <UserObject label="" tags="Background" id="84">
          <mxCell style="vsdxID=49;edgeStyle=none;startArrow=none;endArrow=classic;startSize=5;endSize=5;strokeColor=#000000;spacingTop=0;spacingBottom=0;spacingLeft=0;spacingRight=0;verticalAlign=middle;html=1;labelBackgroundColor=#ffffff;rounded=0;exitX=1;exitY=0.5;exitDx=0;exitDy=0;exitPerimeter=0;entryX=0;entryY=0.225;entryDx=0;entryDy=0;entryPerimeter=0;" parent="43" source="23" target="40" edge="1">
            <mxGeometry relative="1" as="geometry">
              <mxPoint x="-149" y="121" as="offset" />
              <Array as="points" />
            </mxGeometry>
          </mxCell>
        </UserObject>
        <UserObject label="" tags="Background" id="45">
          <mxCell style="vsdxID=5110000;fillColor=none;gradientColor=none;strokeColor=none;spacingTop=-3;spacingBottom=-3;spacingLeft=-3;spacingRight=-3;points=[];labelBackgroundColor=none;rounded=0;html=1;whiteSpace=wrap;" parent="1" vertex="1">
            <mxGeometry as="geometry" />
          </mxCell>
        </UserObject>
        <mxCell id="46" value="&lt;div style=&quot;font-size: 1px&quot;&gt;&lt;font style=&quot;font-size:10.67px;font-family:Helvetica;color:#000000;direction:ltr;letter-spacing:0px;line-height:120%;opacity:1&quot;&gt;TCP&lt;/font&gt;&lt;/div&gt;" style="verticalAlign=middle;align=center;overflow=width;vsdxID=52;fillColor=none;gradientColor=none;strokeColor=none;spacingTop=-3;spacingBottom=-3;spacingLeft=-3;spacingRight=-3;points=[];labelBackgroundColor=#ffffff;rounded=0;html=1;whiteSpace=wrap;" parent="45" vertex="1">
          <mxGeometry x="22" y="1" as="geometry" />
        </mxCell>
        <UserObject label="" tags="Background" id="85">
          <mxCell style="vsdxID=51;edgeStyle=none;startArrow=none;endArrow=classic;startSize=5;endSize=5;strokeColor=#000000;spacingTop=0;spacingBottom=0;spacingLeft=0;spacingRight=0;verticalAlign=middle;html=1;labelBackgroundColor=#ffffff;rounded=0;exitX=1;exitY=0.5;exitDx=0;exitDy=0;exitPerimeter=0;entryX=0;entryY=0.5;entryDx=0;entryDy=0;entryPerimeter=0;" parent="45" source="31" target="40" edge="1">
            <mxGeometry relative="1" as="geometry">
              <mxPoint x="-57" y="102" as="offset" />
              <Array as="points" />
            </mxGeometry>
          </mxCell>
        </UserObject>
        <UserObject label="" tags="Background" id="47">
          <mxCell style="vsdxID=5310000;fillColor=none;gradientColor=none;strokeColor=none;spacingTop=-3;spacingBottom=-3;spacingLeft=-3;spacingRight=-3;points=[];labelBackgroundColor=none;rounded=0;html=1;whiteSpace=wrap;" parent="1" vertex="1">
            <mxGeometry as="geometry" />
          </mxCell>
        </UserObject>
        <mxCell id="48" value="&lt;div style=&quot;font-size: 1px&quot;&gt;&lt;font style=&quot;font-size:10.67px;font-family:Helvetica;color:#000000;direction:ltr;letter-spacing:0px;line-height:120%;opacity:1&quot;&gt;HTTPS&lt;/font&gt;&lt;/div&gt;" style="verticalAlign=middle;align=center;overflow=width;vsdxID=54;fillColor=none;gradientColor=none;strokeColor=none;spacingTop=-3;spacingBottom=-3;spacingLeft=-3;spacingRight=-3;points=[];labelBackgroundColor=#ffffff;rounded=0;html=1;whiteSpace=wrap;" parent="47" vertex="1">
          <mxGeometry x="-257" y="-16" as="geometry" />
        </mxCell>
        <UserObject label="" tags="Background" id="86">
          <mxCell style="vsdxID=53;edgeStyle=none;startArrow=classic;endArrow=classic;startSize=5;endSize=5;strokeColor=#000000;spacingTop=0;spacingBottom=0;spacingLeft=0;spacingRight=0;verticalAlign=middle;html=1;labelBackgroundColor=#ffffff;rounded=0;exitX=1;exitY=0.75;exitDx=0;exitDy=0;exitPerimeter=0;entryX=0;entryY=0.5;entryDx=0;entryDy=0;entryPerimeter=0;" parent="47" source="17" target="23" edge="1">
            <mxGeometry relative="1" as="geometry">
              <mxPoint x="-273" y="101" as="offset" />
              <Array as="points">
                <mxPoint x="600" y="286" />
              </Array>
            </mxGeometry>
          </mxCell>
        </UserObject>
        <UserObject label="" tags="Background" id="49">
          <mxCell style="vsdxID=5510000;fillColor=none;gradientColor=none;strokeColor=none;spacingTop=-3;spacingBottom=-3;spacingLeft=-3;spacingRight=-3;points=[];labelBackgroundColor=none;rounded=0;html=1;whiteSpace=wrap;" parent="1" vertex="1">
            <mxGeometry as="geometry" />
          </mxCell>
        </UserObject>
        <mxCell id="50" value="&lt;div style=&quot;font-size: 1px&quot;&gt;&lt;font style=&quot;font-size:10.67px;font-family:Helvetica;color:#000000;direction:ltr;letter-spacing:0px;line-height:120%;opacity:1&quot;&gt;HTTPS&lt;/font&gt;&lt;/div&gt;" style="verticalAlign=middle;align=center;overflow=width;vsdxID=56;fillColor=none;gradientColor=none;strokeColor=none;spacingTop=-3;spacingBottom=-3;spacingLeft=-3;spacingRight=-3;points=[];labelBackgroundColor=#ffffff;rounded=0;html=1;whiteSpace=wrap;" parent="49" vertex="1">
          <mxGeometry x="-159" y="76" as="geometry" />
        </mxCell>
        <UserObject label="" tags="Background" id="87">
          <mxCell style="vsdxID=55;edgeStyle=none;startArrow=none;endArrow=classic;startSize=5;endSize=5;strokeColor=#000000;spacingTop=0;spacingBottom=0;spacingLeft=0;spacingRight=0;verticalAlign=middle;html=1;labelBackgroundColor=#ffffff;rounded=0;exitX=1;exitY=0.24347826086956523;exitDx=0;exitDy=0;exitPerimeter=0;entryX=0;entryY=0.5;entryDx=0;entryDy=0;entryPerimeter=0;" parent="49" source="14" target="30" edge="1">
            <mxGeometry relative="1" as="geometry">
              <mxPoint x="-232" y="270" as="offset" />
              <Array as="points">
                <mxPoint x="620" y="414.25" />
              </Array>
            </mxGeometry>
          </mxCell>
        </UserObject>
        <UserObject label="&lt;div style=&quot;font-size: 1px&quot;&gt;&lt;font style=&quot;font-size:15.52px;font-family:Helvetica;color:#000000;direction:ltr;letter-spacing:0px;line-height:120%;opacity:1&quot;&gt;Digitiser&lt;/font&gt;&lt;/div&gt;" tags="Background" id="51">
          <mxCell style="verticalAlign=middle;align=center;overflow=width;vsdxID=58;fillColor=#262DFC;gradientColor=none;shape=stencil(nVZbctswDDyNfjEkIL6+0/QemcapNXXtjOK09u1LDR8iQYt2+kfDCy6weFADPX3sX953A4qP83z6tfs7vZ73A30bEKfjfjdPZ38a6Hmgp7fTvPs5nz6Pr+H3+8uCXE6/T3+WGy7Bz4FUixOKazQoGIPle8D/+JyDgwwAKQBtdIkmg+AwmC4YTGhBmoiKJjWCi1wXiiYRIcQhG+TKADHy8trIpEfQkpEbEFSTG5GjTvzam3SP3yJorPm1BdQ1vxMgsea3Eghrfo+yquZvxD9Mxy8Vqy4uGjCyckDTy67Ep2qPOeGUHRWoaBpB3alsRmxQawR0NXVxKeY+yyBs46MWRY+kbVpuckCGNVVLProk/3be7s44Uat5eS22lcE2RGpRNzP3h3URvE2HQ9gj+f+tLWEod+81z5Ps1tNHxzT1g6r5oCqQfFARrK7T8lOpbZ2WkmC6svrhzvsnyWpAOdZQGiwxWS0IJmuJeqyhCoc0R5gzLbaUrblFv5dEt48UsMUkajokkJoNTxEUtaiHci0d5CqhZeQO7MiGx+QlnciXlmbkS6G7/NIPC0tc6eST+dddkuiNama3AKV97AeKeuyFS7Q4C44lr0Bx4QUrtW8Y9hQlyO2HwIueeucmnMfpRhjHOtA1hvRqrYqkOMtkmifqcZVKn/SQypxB4rc6k13X/cB7pFxFqUfYLmq23N39JiotO8Jn0b4O7Rb0v6FiM3G22v2BfxN6U/iepOd/);strokeColor=#1559b7;spacingTop=-3;spacingBottom=-3;spacingLeft=-3;spacingRight=-3;points=[];labelBackgroundColor=none;rounded=0;html=1;whiteSpace=wrap;" parent="1" vertex="1">
            <mxGeometry x="462" y="33" width="78" height="78" as="geometry" />
          </mxCell>
        </UserObject>
        <UserObject label="&lt;div style=&quot;font-size: 1px&quot;&gt;&lt;font style=&quot;font-size:15.52px;font-family:Helvetica;color:#363636;direction:ltr;letter-spacing:0px;line-height:120%;opacity:1&quot;&gt;Collection Manager&lt;/font&gt;&lt;/div&gt;" tags="Background" id="52">
          <mxCell style="verticalAlign=middle;align=center;overflow=width;vsdxID=61;fillColor=#a20025;gradientColor=none;shape=stencil(nVZbctswDDyNfjEkIL6+0/QemcapNXXtjOK09u1LDR8iQYt2+kfDCy6weFADPX3sX953A4qP83z6tfs7vZ73A30bEKfjfjdPZ38a6Hmgp7fTvPs5nz6Pr+H3+8uCXE6/T3+WGy7Bz4FUixOKazQoGIPle8D/+JyDgwwAKQBtdIkmg+AwmC4YTGhBmoiKJjWCi1wXiiYRIcQhG+TKADHy8trIpEfQkpEbEFSTG5GjTvzam3SP3yJorPm1BdQ1vxMgsea3Eghrfo+yquZvxD9Mxy8Vqy4uGjCyckDTy67Ep2qPOeGUHRWoaBpB3alsRmxQawR0NXVxKeY+yyBs46MWRY+kbVpuckCGNVVLProk/3be7s44Uat5eS22lcE2RGpRNzP3h3URvE2HQ9gj+f+tLWEod+81z5Ps1tNHxzT1g6r5oCqQfFARrK7T8lOpbZ2WkmC6svrhzvsnyWpAOdZQGiwxWS0IJmuJeqyhCoc0R5gzLbaUrblFv5dEt48UsMUkajokkJoNTxEUtaiHci0d5CqhZeQO7MiGx+QlnciXlmbkS6G7/NIPC0tc6eST+dddkuiNama3AKV97AeKeuyFS7Q4C44lr0Bx4QUrtW8Y9hQlyO2HwIueeucmnMfpRhjHOtA1hvRqrYqkOMtkmifqcZVKn/SQypxB4rc6k13X/cB7pFxFqUfYLmq23N39JiotO8Jn0b4O7Rb0v6FiM3G22v2BfxN6U/iepOd/);strokeColor=#6F0000;spacingTop=-3;spacingBottom=-3;spacingLeft=-3;spacingRight=-3;points=[];labelBackgroundColor=none;rounded=0;html=1;whiteSpace=wrap;" parent="1" vertex="1">
            <mxGeometry x="591" y="33" width="78" height="78" as="geometry" />
          </mxCell>
        </UserObject>
        <UserObject label="&lt;div style=&quot;font-size: 1px&quot;&gt;&lt;font style=&quot;font-size:26.19px;font-family:Helvetica;color:#000000;direction:ltr;letter-spacing:0px;line-height:120%;opacity:1&quot;&gt;v1.1.0&lt;/font&gt;&lt;/div&gt;" tags="Background" id="53">
          <mxCell style="verticalAlign=middle;align=center;overflow=width;vsdxID=63;fillColor=none;gradientColor=none;shape=stencil(nZBRDoQgDERP03+WHsHFe5iISyOCQdT19kIaIxq//Jtp3zTpAFaTaUYNUkwx+F6v1EYD+AUpyRkdKCYFqACrzgf9C352LfuxyWRWg1/yhT/nRE5IsZWuZtCSK8CPeI0e/hF+jV7AJM4PO7KWCyr390bSiNtEtQM=);strokeColor=none;spacingTop=-3;spacingBottom=-3;spacingLeft=-3;spacingRight=-3;points=[];labelBackgroundColor=none;rounded=0;html=1;whiteSpace=wrap;" parent="1" vertex="1">
            <mxGeometry x="1550" y="33" width="100" height="50" as="geometry" />
          </mxCell>
        </UserObject>
        <UserObject label="&lt;div style=&quot;font-size: 1px&quot;&gt;&lt;font style=&quot;font-size:11.64px;font-family:Helvetica;color:#000000;direction:ltr;letter-spacing:0px;line-height:120%;opacity:1&quot;&gt;Specify &lt;br/&gt;&lt;/font&gt;&lt;font style=&quot;font-size:11.64px;font-family:Helvetica;color:#000000;direction:ltr;letter-spacing:0px;line-height:120%;opacity:1&quot;&gt;Backend&lt;/font&gt;&lt;/div&gt;" tags="Background" id="54">
          <mxCell style="verticalAlign=middle;align=center;overflow=width;vsdxID=19;fillColor=#ffffff;gradientColor=none;shape=stencil(nZHdDsIgDIWfpreGQTTxes4X8AmIVGlEWDr8fXrZGhNmvFqvek6/luQAph287RG0GjKnCz7IZQ9mB1pT9MiUSwemA9OeEuOZ0y060b0tpFaTg052mpHWyvLxQG8Ub7Nab2cljBy5pvv4+FNQJaNXrfYCBooV2KjF6Ff/hRejM7A0UzgSG4Ug2dbz3zCLJR9hug8=);strokeColor=#000000;spacingTop=-3;spacingBottom=-3;spacingLeft=-3;spacingRight=-3;points=[];labelBackgroundColor=none;rounded=1;html=1;whiteSpace=wrap;" parent="1" vertex="1">
            <mxGeometry x="380" y="310" width="120" height="44" as="geometry" />
          </mxCell>
        </UserObject>
        <UserObject label="" tags="Background" id="55">
          <mxCell style="vsdxID=6410000;fillColor=none;gradientColor=none;strokeColor=none;spacingTop=-3;spacingBottom=-3;spacingLeft=-3;spacingRight=-3;points=[];labelBackgroundColor=none;rounded=0;html=1;whiteSpace=wrap;" parent="1" vertex="1">
            <mxGeometry as="geometry" />
          </mxCell>
        </UserObject>
        <mxCell id="56" value="&lt;div style=&quot;font-size: 1px&quot;&gt;&lt;font style=&quot;font-size:10.67px;font-family:Helvetica;color:#000000;direction:ltr;letter-spacing:0px;line-height:120%;opacity:1&quot;&gt;HTTPS&lt;/font&gt;&lt;/div&gt;" style="verticalAlign=middle;align=center;overflow=width;vsdxID=66;fillColor=none;gradientColor=none;strokeColor=none;spacingTop=-3;spacingBottom=-3;spacingLeft=-3;spacingRight=-3;points=[];labelBackgroundColor=#ffffff;rounded=0;html=1;whiteSpace=wrap;" parent="55" vertex="1">
          <mxGeometry x="-2" y="5" as="geometry" />
        </mxCell>
        <UserObject label="" tags="Background" id="92">
          <mxCell style="vsdxID=64;edgeStyle=none;startArrow=none;endArrow=classic;startSize=5;endSize=5;strokeColor=#000000;spacingTop=0;spacingBottom=0;spacingLeft=0;spacingRight=0;verticalAlign=middle;html=1;labelBackgroundColor=#ffffff;rounded=0;exitX=0.5;exitY=1;exitDx=0;exitDy=0;exitPerimeter=0;entryX=0.5;entryY=0;entryDx=0;entryDy=0;entryPerimeter=0;" parent="55" source="57" target="58" edge="1">
            <mxGeometry relative="1" as="geometry">
              <mxPoint y="119" as="offset" />
              <Array as="points" />
            </mxGeometry>
          </mxCell>
        </UserObject>
        <UserObject label="&lt;div style=&quot;font-size: 1px&quot;&gt;&lt;font style=&quot;font-size:11.64px;font-family:Helvetica;color:#000000;direction:ltr;letter-spacing:0px;line-height:120%;opacity:1&quot;&gt;Specify &lt;br/&gt;&lt;/font&gt;&lt;font style=&quot;font-size:11.64px;font-family:Helvetica;color:#000000;direction:ltr;letter-spacing:0px;line-height:120%;opacity:1&quot;&gt;WebServer&lt;/font&gt;&lt;/div&gt;" tags="Background" id="57">
          <mxCell style="verticalAlign=middle;align=center;overflow=width;vsdxID=16;fillColor=#ffffff;gradientColor=none;shape=stencil(nZHdDsIgDIWfpreGQTTxes4X8AmIVGlEWDr8fXrZGhNmvFqvek6/luQAph287RG0GjKnCz7IZQ9mB1pT9MiUSwemA9OeEuOZ0y060b0tpFaTg052mpHWyvLxQG8Ub7Nab2cljBy5pvv4+FNQJaNXrfYCBooV2KjF6Ff/hRejM7A0UzgSG4Ug2dbz3zCLJR9hug8=);strokeColor=#000000;spacingTop=-3;spacingBottom=-3;spacingLeft=-3;spacingRight=-3;points=[];labelBackgroundColor=none;rounded=1;html=1;whiteSpace=wrap;" parent="1" vertex="1">
            <mxGeometry x="210" y="310" width="120" height="44" as="geometry" />
          </mxCell>
        </UserObject>
        <UserObject label="&lt;div style=&quot;font-size: 1px&quot;&gt;&lt;font style=&quot;font-size:11.64px;font-family:Helvetica;color:#000000;direction:ltr;letter-spacing:0px;line-height:120%;opacity:1&quot;&gt;Specify&lt;br/&gt;&lt;/font&gt;&lt;font style=&quot;font-size:11.64px;font-family:Helvetica;color:#000000;direction:ltr;letter-spacing:0px;line-height:120%;opacity:1&quot;&gt;FileShare&lt;/font&gt;&lt;/div&gt;" tags="Background" id="58">
          <mxCell style="verticalAlign=middle;align=center;overflow=width;vsdxID=65;fillColor=#ffffff;gradientColor=none;shape=stencil(nZBRDoQgDERP03+WHsHFe5iISyOCQdT19kIaIxq//Jtp3zTpAFaTaUYNUkwx+F6v1EYD+AUpyRkdKCYFqACrzgf9C352LfuxyWRWg1/yhT/nRE5IsZWuZtCSK8CPeI0e/hF+jV7AJM4PO7KWCyr390bSiNtEtQM=);strokeColor=#000000;spacingTop=-3;spacingBottom=-3;spacingLeft=-3;spacingRight=-3;points=[];labelBackgroundColor=none;rounded=0;html=1;whiteSpace=wrap;" parent="1" vertex="1">
            <mxGeometry x="210" y="390" width="120" height="40" as="geometry" />
          </mxCell>
        </UserObject>
        <UserObject label="&lt;div style=&quot;font-size: 1px&quot;&gt;&lt;font style=&quot;font-size:10.67px;font-family:Helvetica;color:#000000;direction:ltr;letter-spacing:0px;line-height:120%;opacity:1&quot;&gt;HTTPS&lt;/font&gt;&lt;/div&gt;" tags="Background" id="59">
          <mxCell style="verticalAlign=middle;align=center;overflow=width;vsdxID=67;fillColor=none;gradientColor=none;strokeColor=none;spacingTop=-3;spacingBottom=-3;spacingLeft=-3;spacingRight=-3;points=[];labelBackgroundColor=#ffffff;rounded=0;html=1;whiteSpace=wrap;" parent="1" vertex="1">
            <mxGeometry x="440" y="285" as="geometry" />
          </mxCell>
        </UserObject>
        <UserObject label="" tags="Background" id="60">
          <mxCell style="vsdxID=6810000;fillColor=none;gradientColor=none;strokeColor=none;spacingTop=-3;spacingBottom=-3;spacingLeft=-3;spacingRight=-3;points=[];labelBackgroundColor=none;rounded=0;html=1;whiteSpace=wrap;" parent="1" vertex="1">
            <mxGeometry x="933" y="342" width="101" height="36" as="geometry" />
          </mxCell>
        </UserObject>
        <mxCell id="62" style="vsdxID=69;rotation=270;fillColor=#ffffff;gradientColor=none;shape=stencil(jVTRdoMgDP0aXnOAANbnrvuPntVOz5z2WLvZv68uOggrurck3HAvN4DA/bU8Xgqh5bXv2o/iuzr1pcAXoXXVlEVX9WMk8CBwf2674r1rb82J8stxQk7RZ/s17TBQn5w6tLxTpixY81N5JfDbrSO04vA5dZA7qgyaKloD5jNIs54BKbXLHhguJ/gcgnacU3LCzEK+44QKnOGcOwvoOK0Ba9eYcwMZcuYMTMbJlZQRtQKjObfHYMLkumqCiXj8rN2AcWtKfcMiHUGayKUMnIqkyo3BLIAEbTjpWMnAR79QhsKQIzBxWO7Nxm0dA3/Pz1Vd0zP5XU89gtjyzWfwx/LxOinctBwVyHzddA/5v+3hts+ND+U9N37dy8jHMYj/l7FEfxMeHg==);strokeColor=#000000;spacingTop=-3;spacingBottom=-3;spacingLeft=-3;spacingRight=-3;points=[];labelBackgroundColor=none;rounded=0;html=1;whiteSpace=wrap;" parent="60" vertex="1">
          <mxGeometry x="31" y="-32" width="33" height="96" as="geometry" />
        </mxCell>
        <mxCell id="63" value="&lt;div style=&quot;font-size: 1px&quot;&gt;&lt;font style=&quot;font-size:11.64px;font-family:Helvetica;color:#000000;direction:ltr;letter-spacing:0px;line-height:120%;opacity:1&quot;&gt;RabbitMQ&lt;br/&gt;&lt;/font&gt;&lt;font style=&quot;font-size:9.7px;font-family:Helvetica;color:#000000;direction:ltr;letter-spacing:0px;line-height:120%;opacity:1&quot;&gt;AMQP v1.0&lt;/font&gt;&lt;/div&gt;" style="verticalAlign=middle;align=center;overflow=width;vsdxID=30;fillColor=none;gradientColor=none;shape=stencil(nZBRDoQgDERP03+WHsHFe5iISyOCQdT19kIaIxq//Jtp3zTpAFaTaUYNUkwx+F6v1EYD+AUpyRkdKCYFqACrzgf9C352LfuxyWRWg1/yhT/nRE5IsZWuZtCSK8CPeI0e/hF+jV7AJM4PO7KWCyr390bSiNtEtQM=);strokeColor=none;spacingTop=-3;spacingBottom=-3;spacingLeft=-3;spacingRight=-3;points=[];labelBackgroundColor=none;rounded=0;html=1;whiteSpace=wrap;" parent="60" vertex="1">
          <mxGeometry x="21" y="-4" width="80" height="40" as="geometry" />
        </mxCell>
        <UserObject label="" tags="Background" id="64">
          <mxCell style="vsdxID=7010000;fillColor=none;gradientColor=none;strokeColor=none;spacingTop=-3;spacingBottom=-3;spacingLeft=-3;spacingRight=-3;points=[];labelBackgroundColor=none;rounded=0;html=1;whiteSpace=wrap;" parent="1" vertex="1">
            <mxGeometry as="geometry" />
          </mxCell>
        </UserObject>
        <mxCell id="65" value="&lt;div style=&quot;font-size: 1px&quot;&gt;&lt;font style=&quot;font-size:10.67px;font-family:Helvetica;color:#000000;direction:ltr;letter-spacing:0px;line-height:120%;opacity:1&quot;&gt;HTTPS&lt;/font&gt;&lt;/div&gt;" style="verticalAlign=middle;align=center;overflow=width;vsdxID=71;fillColor=none;gradientColor=none;strokeColor=none;spacingTop=-3;spacingBottom=-3;spacingLeft=-3;spacingRight=-3;points=[];labelBackgroundColor=#ffffff;rounded=0;html=1;whiteSpace=wrap;" parent="64" vertex="1">
          <mxGeometry as="geometry" />
        </mxCell>
        <mxCell id="93" parent="64" vertex="1">
          <mxGeometry x="790" y="332" as="geometry" />
        </mxCell>
        <UserObject label="" tags="Background" id="94">
          <mxCell style="vsdxID=70;edgeStyle=none;startArrow=none;endArrow=classic;startSize=5;endSize=5;strokeColor=#000000;spacingTop=0;spacingBottom=0;spacingLeft=0;spacingRight=0;verticalAlign=middle;html=1;labelBackgroundColor=#ffffff;rounded=0;entryX=1;entryY=0.5;entryDx=0;entryDy=0;entryPerimeter=0;" parent="64" source="93" target="54" edge="1">
            <mxGeometry relative="1" as="geometry">
              <mxPoint x="145" y="102" as="offset" />
              <Array as="points" />
            </mxGeometry>
          </mxCell>
        </UserObject>
        <UserObject label="" tags="Background" id="66">
          <mxCell style="vsdxID=7210000;fillColor=none;gradientColor=none;strokeColor=none;spacingTop=-3;spacingBottom=-3;spacingLeft=-3;spacingRight=-3;points=[];labelBackgroundColor=none;rounded=0;html=1;whiteSpace=wrap;" parent="1" vertex="1">
            <mxGeometry as="geometry" />
          </mxCell>
        </UserObject>
        <mxCell id="67" value="&lt;div style=&quot;font-size: 1px&quot;&gt;&lt;font style=&quot;font-size:10.67px;font-family:Helvetica;color:#000000;direction:ltr;letter-spacing:0px;line-height:120%;opacity:1&quot;&gt;HTTPS&lt;/font&gt;&lt;/div&gt;" style="verticalAlign=middle;align=center;overflow=width;vsdxID=74;fillColor=none;gradientColor=none;strokeColor=none;spacingTop=-3;spacingBottom=-3;spacingLeft=-3;spacingRight=-3;points=[];labelBackgroundColor=#ffffff;rounded=0;html=1;whiteSpace=wrap;" parent="66" vertex="1">
          <mxGeometry x="18" as="geometry" />
        </mxCell>
        <UserObject label="" tags="Background" id="95">
          <mxCell style="vsdxID=72;edgeStyle=none;startArrow=none;endArrow=classic;startSize=5;endSize=5;strokeColor=#000000;spacingTop=0;spacingBottom=0;spacingLeft=0;spacingRight=0;verticalAlign=middle;html=1;labelBackgroundColor=#ffffff;rounded=0;exitX=0;exitY=0.75;exitDx=0;exitDy=0;exitPerimeter=0;entryX=1;entryY=0.5;entryDx=0;entryDy=0;entryPerimeter=0;" parent="66" source="68" target="57" edge="1">
            <mxGeometry relative="1" as="geometry">
              <mxPoint x="252" y="101" as="offset" />
              <Array as="points">
                <mxPoint x="350" y="378.02" />
                <mxPoint x="350" y="331.32" />
              </Array>
            </mxGeometry>
          </mxCell>
        </UserObject>
        <UserObject label="&lt;div style=&quot;font-size: 1px&quot;&gt;&lt;font style=&quot;font-size:11.64px;font-family:Helvetica;color:#000000;direction:ltr;letter-spacing:0px;line-height:120%;opacity:1&quot;&gt;DaSSCo &lt;br/&gt;&lt;/font&gt;&lt;font style=&quot;font-size:11.64px;font-family:Helvetica;color:#000000;direction:ltr;letter-spacing:0px;line-height:120%;opacity:1&quot;&gt;Specify Adapter&lt;/font&gt;&lt;/div&gt;" tags="Background" id="68">
          <mxCell style="verticalAlign=middle;align=center;overflow=width;vsdxID=73;fillColor=#ffffff;gradientColor=none;shape=stencil(nZBLDsIwDERP433qHKGUC3CCiBhiEZLKDd/Tk9YgBcSqO8/MG1kasP0U3EiAZiqST3RjXwLYDSByCiRc6gV2ANsfstBR8iV51aOrJJrFIa+dbqbRONnv+ElvD9XU1jlf5293zYxGj1ZtFYycGrAzq9GP/guvRr/Aeixr6E4co47Z5r/rVUuXt8ML);strokeColor=#000000;spacingTop=-3;spacingBottom=-3;spacingLeft=-3;spacingRight=-3;points=[];labelBackgroundColor=none;rounded=1;html=1;whiteSpace=wrap;" parent="1" vertex="1">
            <mxGeometry x="787" y="318" width="120" height="80" as="geometry" />
          </mxCell>
        </UserObject>
        <UserObject label="" tags="Background" id="69">
          <mxCell style="vsdxID=7610000;fillColor=none;gradientColor=none;strokeColor=none;spacingTop=-3;spacingBottom=-3;spacingLeft=-3;spacingRight=-3;points=[];labelBackgroundColor=none;rounded=0;html=1;whiteSpace=wrap;" parent="1" vertex="1">
            <mxGeometry as="geometry" />
          </mxCell>
        </UserObject>
        <mxCell id="70" value="&lt;div style=&quot;font-size: 1px&quot;&gt;&lt;font style=&quot;font-size:10.67px;font-family:Helvetica;color:#000000;direction:ltr;letter-spacing:0px;line-height:120%;opacity:1&quot;&gt;HTTPS&lt;/font&gt;&lt;/div&gt;" style="verticalAlign=middle;align=center;overflow=width;vsdxID=77;fillColor=none;gradientColor=none;strokeColor=none;spacingTop=-3;spacingBottom=-3;spacingLeft=-3;spacingRight=-3;points=[];labelBackgroundColor=#ffffff;rounded=0;html=1;whiteSpace=wrap;" parent="69" vertex="1">
          <mxGeometry x="-161" y="125" as="geometry" />
        </mxCell>
        <UserObject label="" tags="Background" id="97">
          <mxCell style="vsdxID=76;edgeStyle=none;startArrow=none;endArrow=classic;startSize=5;endSize=5;strokeColor=#000000;spacingTop=0;spacingBottom=0;spacingLeft=0;spacingRight=0;verticalAlign=middle;html=1;labelBackgroundColor=#ffffff;rounded=0;exitX=0.75;exitY=0;exitDx=0;exitDy=0;exitPerimeter=0;entryX=0;entryY=0.75;entryDx=0;entryDy=0;entryPerimeter=0;" parent="69" source="14" target="23" edge="1">
            <mxGeometry relative="1" as="geometry">
              <mxPoint x="-209" y="350" as="offset" />
              <Array as="points">
                <mxPoint x="600" y="390" />
                <mxPoint x="600" y="306" />
              </Array>
            </mxGeometry>
          </mxCell>
        </UserObject>
        <UserObject label="" tags="Background" id="71">
          <mxCell style="vsdxID=13;edgeStyle=none;startArrow=none;endArrow=classic;startSize=5;endSize=5;strokeColor=#000000;spacingTop=0;spacingBottom=0;spacingLeft=0;spacingRight=0;verticalAlign=middle;html=1;labelBackgroundColor=#ffffff;rounded=0;exitX=1;exitY=0.5;exitDx=0;exitDy=0;exitPerimeter=0;entryX=0.5;entryY=1;entryDx=0;entryDy=0;entryPerimeter=0;" parent="1" source="11" target="14" edge="1">
            <mxGeometry relative="1" as="geometry">
              <mxPoint x="-88" y="101" as="offset" />
              <Array as="points">
                <mxPoint x="440" y="725" />
              </Array>
            </mxGeometry>
          </mxCell>
        </UserObject>
        <UserObject label="" tags="Background" id="73">
          <mxCell style="vsdxID=18;edgeStyle=none;startArrow=none;endArrow=classic;startSize=5;endSize=5;strokeColor=#000000;spacingTop=0;spacingBottom=0;spacingLeft=0;spacingRight=0;verticalAlign=middle;html=1;labelBackgroundColor=#ffffff;rounded=0;exitX=0.5;exitY=1;exitDx=0;exitDy=0;exitPerimeter=0;entryX=0.5;entryY=0;entryDx=0;entryDy=0;entryPerimeter=0;" parent="1" source="17" target="54" edge="1">
            <mxGeometry relative="1" as="geometry">
              <mxPoint y="124" as="offset" />
              <Array as="points" />
            </mxGeometry>
          </mxCell>
        </UserObject>
        <UserObject label="" tags="Background" id="74">
          <mxCell style="vsdxID=20;edgeStyle=none;startArrow=none;endArrow=classic;startSize=5;endSize=5;strokeWidth=2;strokeColor=#2D7600;spacingTop=0;spacingBottom=0;spacingLeft=0;spacingRight=0;verticalAlign=middle;html=1;labelBackgroundColor=#ffffff;rounded=0;exitX=0.9487179487179487;exitY=0.5;exitDx=0;exitDy=0;exitPerimeter=0;entryX=0;entryY=0.5;entryDx=0;entryDy=0;entryPerimeter=0;" parent="1" source="18" target="17" edge="1">
            <mxGeometry relative="1" as="geometry">
              <mxPoint x="-127" y="102" as="offset" />
              <Array as="points" />
            </mxGeometry>
          </mxCell>
        </UserObject>
        <UserObject label="" tags="Background" id="75">
          <mxCell style="vsdxID=22;edgeStyle=none;startArrow=none;endArrow=classic;startSize=5;endSize=5;strokeWidth=2;strokeColor=#001DBC;spacingTop=0;spacingBottom=0;spacingLeft=0;spacingRight=0;verticalAlign=middle;html=1;labelBackgroundColor=#ffffff;rounded=0;exitX=0.9487179487179487;exitY=0.5;exitDx=0;exitDy=0;exitPerimeter=0;entryX=0;entryY=0.5;entryDx=0;entryDy=0;entryPerimeter=0;" parent="1" source="19" target="11" edge="1">
            <mxGeometry relative="1" as="geometry">
              <mxPoint x="-43" y="102" as="offset" />
              <Array as="points" />
            </mxGeometry>
          </mxCell>
        </UserObject>
        <UserObject label="" tags="Background" id="77">
          <mxCell style="vsdxID=29;edgeStyle=none;startArrow=none;endArrow=classic;startSize=5;endSize=5;strokeColor=#000000;spacingTop=0;spacingBottom=0;spacingLeft=0;spacingRight=0;verticalAlign=middle;html=1;labelBackgroundColor=#ffffff;rounded=0;exitX=0.075;exitY=0.925;exitDx=0;exitDy=0;exitPerimeter=0;entryX=0.9125;entryY=0.1;entryDx=0;entryDy=0;entryPerimeter=0;" parent="1" source="23" target="63" edge="1">
            <mxGeometry relative="1" as="geometry">
              <mxPoint x="16" y="112" as="offset" />
              <Array as="points" />
            </mxGeometry>
          </mxCell>
        </UserObject>
        <UserObject label="" tags="Background" id="88">
          <mxCell style="vsdxID=57;edgeStyle=none;startArrow=none;endArrow=classic;startSize=5;endSize=5;strokeWidth=2;strokeColor=#001DBC;spacingTop=0;spacingBottom=0;spacingLeft=0;spacingRight=0;verticalAlign=middle;html=1;labelBackgroundColor=#ffffff;rounded=0;exitX=0.7692307692307693;exitY=1;exitDx=0;exitDy=0;exitPerimeter=0;entryX=0;entryY=0.25;entryDx=0;entryDy=0;entryPerimeter=0;" parent="1" source="51" target="23" edge="1">
            <mxGeometry relative="1" as="geometry">
              <mxPoint x="-219" y="101" as="offset" />
              <Array as="points">
                <mxPoint x="609.09" y="266" />
              </Array>
            </mxGeometry>
          </mxCell>
        </UserObject>
        <UserObject label="" tags="Background" id="89">
          <mxCell style="vsdxID=59;edgeStyle=none;startArrow=none;endArrow=classic;startSize=5;endSize=5;strokeWidth=2;strokeColor=#001DBC;spacingTop=0;spacingBottom=0;spacingLeft=0;spacingRight=0;verticalAlign=middle;html=1;labelBackgroundColor=#ffffff;rounded=0;exitX=0.32051282051282054;exitY=1;exitDx=0;exitDy=0;exitPerimeter=0;entryX=0.5583333333333333;entryY=0;entryDx=0;entryDy=0;entryPerimeter=0;" parent="1" source="51" target="17" edge="1">
            <mxGeometry relative="1" as="geometry">
              <mxPoint x="19" y="156" as="offset" />
              <Array as="points" />
            </mxGeometry>
          </mxCell>
        </UserObject>
        <UserObject label="" tags="Background" id="90">
          <mxCell style="vsdxID=60;edgeStyle=none;startArrow=none;endArrow=classic;startSize=5;endSize=5;strokeWidth=2;strokeColor=#6F0000;spacingTop=0;spacingBottom=0;spacingLeft=0;spacingRight=0;verticalAlign=middle;html=1;labelBackgroundColor=#ffffff;rounded=0;exitX=0.2692307692307692;exitY=1;exitDx=0;exitDy=0;exitPerimeter=0;entryX=1;entryY=0.25;entryDx=0;entryDy=0;entryPerimeter=0;" parent="1" source="52" target="17" edge="1">
            <mxGeometry relative="1" as="geometry">
              <mxPoint x="38" y="134" as="offset" />
              <Array as="points">
                <mxPoint x="559.28" y="230" />
              </Array>
            </mxGeometry>
          </mxCell>
        </UserObject>
        <UserObject label="" tags="Background" id="91">
          <mxCell style="vsdxID=62;edgeStyle=none;startArrow=none;endArrow=classic;startSize=5;endSize=5;strokeWidth=2;strokeColor=#6F0000;spacingTop=0;spacingBottom=0;spacingLeft=0;spacingRight=0;verticalAlign=middle;html=1;labelBackgroundColor=#ffffff;rounded=0;exitX=0.5;exitY=1;exitDx=0;exitDy=0;exitPerimeter=0;entryX=0;entryY=0.075;entryDx=0;entryDy=0;entryPerimeter=0;" parent="1" source="52" target="23" edge="1">
            <mxGeometry relative="1" as="geometry">
              <mxPoint x="-140" y="101" as="offset" />
              <Array as="points">
                <mxPoint x="630" y="253" />
              </Array>
            </mxGeometry>
          </mxCell>
        </UserObject>
        <UserObject label="" tags="Background" id="96">
          <mxCell style="vsdxID=75;edgeStyle=none;startArrow=none;endArrow=classic;startSize=5;endSize=5;strokeColor=#000000;spacingTop=0;spacingBottom=0;spacingLeft=0;spacingRight=0;verticalAlign=middle;html=1;labelBackgroundColor=#ffffff;rounded=0;entryX=1;entryY=0.5;entryDx=0;entryDy=0;entryPerimeter=0;" parent="1" source="62" target="68" edge="1">
            <mxGeometry relative="1" as="geometry">
              <mxPoint x="13" y="102" as="offset" />
              <Array as="points">
                <mxPoint x="933" y="358" />
              </Array>
            </mxGeometry>
          </mxCell>
        </UserObject>
      </root>
    </mxGraphModel>
  </diagram>
</mxfile>
